<?xml version="1.0" standalone="no"?><svg xmlns:xlink="http://www.w3.org/1999/xlink" xmlns="http://www.w3.org/2000/svg" viewBox="0 0 1000 1000" preserveAspectRatio="xMaxYMax slice"><g transform="scale(2.2872827081427265)"><rect x="0" y="0" width="437.20000000000005" height="437.20000000000005" fill="#ffffff"/><g transform="translate(306.04,87.44) scale(2.186) rotate(0)"><path d="M13 0H20V7L7 20H0V13L13 0Z" fill="#e3e7ec"/></g><rect x="0" y="131.16000000000003" width="43.720000000000006" height="43.720000000000006" fill="#ffffff"/><g transform="translate(21.86,153.02) scale(1.093) rotate(0)"><path d="M13 0H20V7L7 20H0V13L13 0Z" fill="#acb8c8"/></g><path d="M 43.72 174.88 A 43.72 43.72 0 0 1  87.44 131.16 L 43.72 174.88 A 43.72 43.72 0 0 0 87.44 131.16" fill="#f6f7fa"/><path d="M 87.44 174.88 A 43.72 43.72 0 0 1  131.16 131.16 L 87.44 174.88 A 43.72 43.72 0 0 0 131.16 131.16" fill="#fcfdfe"/><path d="M 131.16 131.16 A 43.72 43.72 0 0 1  174.88 174.88 L 131.16 131.16 A 43.72 43.72 0 0 0 174.88 174.88" fill="#d7dee8"/><g transform="translate(174.88,131.16) scale(2.186) rotate(0)"><path d="M13 0H20V7L7 20H0V13L13 0Z" fill="#dbe0e7"/></g><rect x="306.04" y="131.16000000000003" width="43.720000000000006" height="43.720000000000006" fill="#ffffff"/><path d="M 306.04 131.16 A 21.86 21.86 0 0 1  327.90000000000003 153.01999999999998 L 306.04 131.16 A 21.86 21.86 0 0 0 327.90000000000003 153.01999999999998" fill="#ced5de"/><g transform="translate(349.76,131.16) scale(2.186) rotate(0)"><path d="M13 0H20V7L7 20H0V13L13 0Z" fill="#f0f3f7"/></g><g transform="translate(393.48,131.16) scale(2.186) rotate(0)"><path d="M13 0H20V7L7 20H0V13L13 0Z" fill="#f6f9fb"/></g><g transform="translate(43.72,174.88) scale(2.186) rotate(0)"><path d="M13 0H20V7L7 20H0V13L13 0Z" fill="#dee4ec"/></g><rect x="131.16000000000003" y="174.88000000000002" width="43.720000000000006" height="43.720000000000006" fill="#ffffff"/><g transform="translate(131.16,174.88) scale(1.093) rotate(0)"><path d="M13 0H20V7L7 20H0V13L13 0Z" fill="#f6f8fa"/></g><g transform="translate(153.02,174.88) scale(1.093) rotate(0)"><path d="M13 0H20V7L7 20H0V13L13 0Z" fill="#f4f7fa"/></g><g transform="translate(131.16,196.74) scale(1.093) rotate(0)"><path d="M13 0H20V7L7 20H0V13L13 0Z" fill="#e2e6ec"/></g><path d="M 174.88 218.6 A 43.72 43.72 0 0 1  218.6 174.88 L 174.88 218.6 A 43.72 43.72 0 0 0 218.6 174.88" fill="#e7ecf3"/><g transform="translate(218.6,174.88) scale(2.186) rotate(0)"><path d="M13 0H20V7L7 20H0V13L13 0Z" fill="#f4f7fa"/></g><path d="M 306.04 174.88 A 43.72 43.72 0 0 1  349.76 218.6 L 306.04 174.88 A 43.72 43.72 0 0 0 349.76 218.6" fill="#fcfdfd"/><path d="M 349.76 174.88 A 43.72 43.72 0 0 1  393.48 218.6 L 349.76 174.88 A 43.72 43.72 0 0 0 393.48 218.6" fill="#d0d9e4"/><path d="M 87.44 262.32 A 43.72 43.72 0 0 1  131.16 218.6 L 87.44 262.32 A 43.72 43.72 0 0 0 131.16 218.6" fill="#fafbfd"/><g transform="translate(174.88,218.6) scale(2.186) rotate(0)"><path d="M13 0H20V7L7 20H0V13L13 0Z" fill="#f4f7fa"/></g><path d="M 262.32 262.32 A 43.72 43.72 0 0 1  306.03999999999996 218.6 L 262.32 262.32 A 43.72 43.72 0 0 0 306.03999999999996 218.6" fill="#fdfefe"/><g transform="translate(349.76,218.6) scale(2.186) rotate(0)"><path d="M13 0H20V7L7 20H0V13L13 0Z" fill="#acb7c8"/></g><path d="M 0 306.03999999999996 A 43.72 43.72 0 0 1  43.72 262.32 L 0 306.03999999999996 A 43.72 43.72 0 0 0 43.72 262.32" fill="#fcfdfe"/><path d="M 43.72 262.32 A 43.72 43.72 0 0 1  87.44 306.03999999999996 L 43.72 262.32 A 43.72 43.72 0 0 0 87.44 306.03999999999996" fill="#fdfdfe"/><path d="M 87.44 306.03999999999996 A 43.72 43.72 0 0 1  131.16 262.32 L 87.44 306.03999999999996 A 43.72 43.72 0 0 0 131.16 262.32" fill="#fefeff"/><g transform="translate(131.16,262.32) scale(2.186) rotate(0)"><path d="M13 0H20V7L7 20H0V13L13 0Z" fill="#edf0f4"/></g><path d="M 174.88 262.32 A 43.72 43.72 0 0 1  218.6 306.03999999999996 L 174.88 262.32 A 43.72 43.72 0 0 0 218.6 306.03999999999996" fill="#fcfdfe"/><path d="M 218.6 306.03999999999996 A 43.72 43.72 0 0 1  262.32 262.32 L 218.6 306.03999999999996 A 43.72 43.72 0 0 0 262.32 262.32" fill="#cdd6e2"/><rect x="262.32000000000005" y="262.32000000000005" width="43.720000000000006" height="43.720000000000006" fill="#ffffff"/><path d="M 262.32 262.32 A 21.86 21.86 0 0 1  284.18 284.18 L 262.32 262.32 A 21.86 21.86 0 0 0 284.18 284.18" fill="#fdfefe"/><g transform="translate(284.18,262.32) scale(1.093) rotate(0)"><path d="M13 0H20V7L7 20H0V13L13 0Z" fill="#ffffff"/></g><path d="M 262.32 284.18 A 21.86 21.86 0 0 1  284.18 306.04 L 262.32 284.18 A 21.86 21.86 0 0 0 284.18 306.04" fill="#fafcfd"/><g transform="translate(284.18,284.18) scale(1.093) rotate(0)"><path d="M13 0H20V7L7 20H0V13L13 0Z" fill="#e9eef4"/></g><rect x="306.04" y="262.32000000000005" width="43.720000000000006" height="43.720000000000006" fill="#ffffff"/><path d="M 306.04 284.18 A 21.86 21.86 0 0 1  327.90000000000003 262.32 L 306.04 284.18 A 21.86 21.86 0 0 0 327.90000000000003 262.32" fill="#fbfcfd"/><g transform="translate(306.04,284.18) scale(1.093) rotate(0)"><path d="M13 0H20V7L7 20H0V13L13 0Z" fill="#f7f9fb"/></g><path d="M 349.76 306.03999999999996 A 43.72 43.72 0 0 1  393.48 262.32 L 349.76 306.03999999999996 A 43.72 43.72 0 0 0 393.48 262.32" fill="#e7ebef"/><g transform="translate(0,306.04) scale(2.186) rotate(0)"><path d="M13 0H20V7L7 20H0V13L13 0Z" fill="#fefeff"/></g><g transform="translate(43.72,306.04) scale(2.186) rotate(0)"><path d="M13 0H20V7L7 20H0V13L13 0Z" fill="#ebeef2"/></g><rect x="87.44000000000001" y="306.04" width="43.720000000000006" height="43.720000000000006" fill="#ffffff"/><path d="M 87.44 306.04 A 21.86 21.86 0 0 1  109.3 327.90000000000003 L 87.44 306.04 A 21.86 21.86 0 0 0 109.3 327.90000000000003" fill="#f1f3f6"/><g transform="translate(109.3,306.04) scale(1.093) rotate(0)"><path d="M13 0H20V7L7 20H0V13L13 0Z" fill="#e7ecf3"/></g><g transform="translate(109.3,327.9) scale(1.093) rotate(0)"><path d="M13 0H20V7L7 20H0V13L13 0Z" fill="#f4f6f9"/></g><path d="M 131.16 349.76 A 43.72 43.72 0 0 1  174.88 306.04 L 131.16 349.76 A 43.72 43.72 0 0 0 174.88 306.04" fill="#b0bbca"/><path d="M 174.88 349.76 A 43.72 43.72 0 0 1  218.6 306.04 L 174.88 349.76 A 43.72 43.72 0 0 0 218.6 306.04" fill="#cdd7e2"/><path d="M 218.6 349.76 A 43.72 43.72 0 0 1  262.32 306.04 L 218.6 349.76 A 43.72 43.72 0 0 0 262.32 306.04" fill="#fbfcfd"/><g transform="translate(349.76,306.04) scale(2.186) rotate(0)"><path d="M13 0H20V7L7 20H0V13L13 0Z" fill="#fafbfd"/></g><g transform="translate(393.48,306.04) scale(2.186) rotate(0)"><path d="M13 0H20V7L7 20H0V13L13 0Z" fill="#f1f4f8"/></g><g transform="translate(0,349.76) scale(2.186) rotate(0)"><path d="M13 0H20V7L7 20H0V13L13 0Z" fill="#f2f4f7"/></g><g transform="translate(43.72,349.76) scale(2.186) rotate(0)"><path d="M13 0H20V7L7 20H0V13L13 0Z" fill="#f6f9fb"/></g><g transform="translate(87.44,349.76) scale(2.186) rotate(0)"><path d="M13 0H20V7L7 20H0V13L13 0Z" fill="#fdfdfe"/></g><rect x="131.16000000000003" y="349.76000000000005" width="43.720000000000006" height="43.720000000000006" fill="#ffffff"/><path d="M 131.16 371.62 A 21.86 21.86 0 0 1  153.01999999999998 349.76 L 131.16 371.62 A 21.86 21.86 0 0 0 153.01999999999998 349.76" fill="#e5eaf0"/><path d="M 153.02 349.76 A 21.86 21.86 0 0 1  174.88 371.62 L 153.02 349.76 A 21.86 21.86 0 0 0 174.88 371.62" fill="#fdfefe"/><path d="M 131.16 393.48 A 21.86 21.86 0 0 1  153.01999999999998 371.62 L 131.16 393.48 A 21.86 21.86 0 0 0 153.01999999999998 371.62" fill="#fefeff"/><g transform="translate(153.02,371.62) scale(1.093) rotate(0)"><path d="M13 0H20V7L7 20H0V13L13 0Z" fill="#f5f8fb"/></g><path d="M 218.6 393.48 A 43.72 43.72 0 0 1  262.32 349.76 L 218.6 393.48 A 43.72 43.72 0 0 0 262.32 349.76" fill="#f1f4f8"/><g transform="translate(262.32,349.76) scale(2.186) rotate(0)"><path d="M13 0H20V7L7 20H0V13L13 0Z" fill="#fafcfd"/></g><path d="M 306.04 349.76 A 43.72 43.72 0 0 1  349.76 393.48 L 306.04 349.76 A 43.72 43.72 0 0 0 349.76 393.48" fill="#feffff"/><path d="M 349.76 393.48 A 43.72 43.72 0 0 1  393.48 349.76 L 349.76 393.48 A 43.72 43.72 0 0 0 393.48 349.76" fill="#dae1ea"/><g transform="translate(393.48,349.76) scale(2.186) rotate(0)"><path d="M13 0H20V7L7 20H0V13L13 0Z" fill="#f8fafc"/></g><rect x="0" y="393.4800000000001" width="43.720000000000006" height="43.720000000000006" fill="#ffffff"/><path d="M 0 415.34000000000003 A 21.86 21.86 0 0 1  21.86 393.48 L 0 415.34000000000003 A 21.86 21.86 0 0 0 21.86 393.48" fill="#a6b2c4"/><g transform="translate(21.86,393.48) scale(1.093) rotate(0)"><path d="M13 0H20V7L7 20H0V13L13 0Z" fill="#f6f9fb"/></g><path d="M 0 437.2 A 21.86 21.86 0 0 1  21.86 415.34 L 0 437.2 A 21.86 21.86 0 0 0 21.86 415.34" fill="#fefeff"/><path d="M 21.86 437.2 A 21.86 21.86 0 0 1  43.72 415.34 L 21.86 437.2 A 21.86 21.86 0 0 0 43.72 415.34" fill="#f6f8fa"/><rect x="43.720000000000006" y="393.4800000000001" width="43.720000000000006" height="43.720000000000006" fill="#ffffff"/><path d="M 43.72 393.48 A 21.86 21.86 0 0 1  65.58 415.34000000000003 L 43.72 393.48 A 21.86 21.86 0 0 0 65.58 415.34000000000003" fill="#d1dae5"/><path d="M 65.58 393.48 A 21.86 21.86 0 0 1  87.44 415.34000000000003 L 65.58 393.48 A 21.86 21.86 0 0 0 87.44 415.34000000000003" fill="#f7f8fa"/><path d="M 43.72 437.2 A 21.86 21.86 0 0 1  65.58 415.34 L 43.72 437.2 A 21.86 21.86 0 0 0 65.58 415.34" fill="#f8fafc"/><g transform="translate(65.58,415.34) scale(1.093) rotate(0)"><path d="M13 0H20V7L7 20H0V13L13 0Z" fill="#eceff2"/></g><path d="M 87.44 437.20000000000005 A 43.72 43.72 0 0 1  131.16 393.48 L 87.44 437.20000000000005 A 43.72 43.72 0 0 0 131.16 393.48" fill="#fafbfd"/><path d="M 131.16 437.20000000000005 A 43.72 43.72 0 0 1  174.88 393.48 L 131.16 437.20000000000005 A 43.72 43.72 0 0 0 174.88 393.48" fill="#f8f9fb"/><path d="M 174.88 437.20000000000005 A 43.72 43.72 0 0 1  218.6 393.48 L 174.88 437.20000000000005 A 43.72 43.72 0 0 0 218.6 393.48" fill="#f8fafc"/><g transform="translate(218.6,393.48) scale(2.186) rotate(0)"><path d="M13 0H20V7L7 20H0V13L13 0Z" fill="#ebeff5"/></g><rect x="262.32000000000005" y="393.4800000000001" width="43.720000000000006" height="43.720000000000006" fill="#ffffff"/><g transform="translate(262.32,393.48) scale(1.093) rotate(0)"><path d="M13 0H20V7L7 20H0V13L13 0Z" fill="#f8fafb"/></g><g transform="translate(284.18,393.48) scale(1.093) rotate(0)"><path d="M13 0H20V7L7 20H0V13L13 0Z" fill="#d7dfe8"/></g><g transform="translate(262.32,415.34) scale(1.093) rotate(0)"><path d="M13 0H20V7L7 20H0V13L13 0Z" fill="#fbfcfd"/></g><g transform="translate(284.18,415.34) scale(1.093) rotate(0)"><path d="M13 0H20V7L7 20H0V13L13 0Z" fill="#f7f9fc"/></g><rect x="306.04" y="393.4800000000001" width="43.720000000000006" height="43.720000000000006" fill="#ffffff"/><path d="M 306.04 393.48 A 21.86 21.86 0 0 1  327.90000000000003 415.34000000000003 L 306.04 393.48 A 21.86 21.86 0 0 0 327.90000000000003 415.34000000000003" fill="#f3f5f9"/><g transform="translate(327.9,393.48) scale(1.093) rotate(0)"><path d="M13 0H20V7L7 20H0V13L13 0Z" fill="#e8ecf2"/></g><g transform="translate(306.04,415.34) scale(1.093) rotate(0)"><path d="M13 0H20V7L7 20H0V13L13 0Z" fill="#fcfdfe"/></g><path d="M 327.9 415.34 A 21.86 21.86 0 0 1  349.76 437.2 L 327.9 415.34 A 21.86 21.86 0 0 0 349.76 437.2" fill="#d6dce4"/><g transform="translate(349.76,393.48) scale(2.186) rotate(0)"><path d="M13 0H20V7L7 20H0V13L13 0Z" fill="#fefefe"/></g><rect x="393.4800000000001" y="393.4800000000001" width="43.720000000000006" height="43.720000000000006" fill="#ffffff"/><path d="M 393.48 415.34000000000003 A 21.86 21.86 0 0 1  415.34000000000003 393.48 L 393.48 415.34000000000003 A 21.86 21.86 0 0 0 415.34000000000003 393.48" fill="#cfd6df"/><path d="M 415.34 415.34000000000003 A 21.86 21.86 0 0 1  437.2 393.48 L 415.34 415.34000000000003 A 21.86 21.86 0 0 0 437.2 393.48" fill="#f4f6f9"/><path d="M 393.48 415.34 A 21.86 21.86 0 0 1  415.34000000000003 437.2 L 393.48 415.34 A 21.86 21.86 0 0 0 415.34000000000003 437.2" fill="#f9fbfc"/><g transform="translate(415.34,415.34) scale(1.093) rotate(0)"><path d="M13 0H20V7L7 20H0V13L13 0Z" fill="#d4dce6"/></g></g></svg>