<?xml version="1.0" standalone="no"?><svg xmlns:xlink="http://www.w3.org/1999/xlink" xmlns="http://www.w3.org/2000/svg" viewBox="0 0 1000 562.5053876745446" preserveAspectRatio="xMaxYMax slice"><g transform="scale(1.2866088464651066)"><rect x="0" y="0" width="777.2444444444445" height="437.20000000000005" fill="#ffffff"/><rect x="291.4666666666667" y="48.57777777777778" width="48.57777777777778" height="48.57777777777778" fill="#ffffff"/><path d="M 291.47 97.16 A 24.29 24.29 0 0 1  315.76000000000005 72.87 L 291.47 97.16 A 24.29 24.29 0 0 0 315.76000000000005 72.87" fill="#edf8fe"/><path d="M 315.76 72.87 A 24.29 24.29 0 0 1  340.05 97.16 L 315.76 72.87 A 24.29 24.29 0 0 0 340.05 97.16" fill="#e8edff"/><path d="M 48.58 145.74 A 48.58 48.58 0 0 1  97.16 97.16 L 48.58 145.74 A 48.58 48.58 0 0 0 97.16 97.16" fill="#ffffff"/><path d="M 242.89 97.16 A 48.58 48.58 0 0 1  291.46999999999997 145.74 L 242.89 97.16 A 48.58 48.58 0 0 0 291.46999999999997 145.74" fill="#fafcff"/><g transform="translate(291.47,97.16) scale(2.429) rotate(0)"><path fill-rule="evenodd" clip-rule="evenodd" d="M10 20C15.5228 20 20 15.5228 20 10C20 4.47715 15.5228 0 10 0C4.47715 0 0 4.47715 0 10C0 15.5228 4.47715 20 10 20ZM10 17C13.866 17 17 13.866 17 10C17 6.13401 13.866 3 10 3C6.13401 3 3 6.13401 3 10C3 13.866 6.13401 17 10 17Z" fill="#ffffff"/></g><path d="M 388.62 97.16 A 48.58 48.58 0 0 1  437.2 145.74 L 388.62 97.16 A 48.58 48.58 0 0 0 437.2 145.74" fill="#f5f7ff"/><circle cx="72.87" cy="170.01999999999998" r="24.29" fill="#f8fcff"/><circle cx="315.76000000000005" cy="170.01999999999998" r="24.29" fill="#fefeff"/><g transform="translate(340.04,145.73) scale(2.429) rotate(0)"><path fill-rule="evenodd" clip-rule="evenodd" d="M10 20C15.5228 20 20 15.5228 20 10C20 4.47715 15.5228 0 10 0C4.47715 0 0 4.47715 0 10C0 15.5228 4.47715 20 10 20ZM10 17C13.866 17 17 13.866 17 10C17 6.13401 13.866 3 10 3C6.13401 3 3 6.13401 3 10C3 13.866 6.13401 17 10 17Z" fill="#e3effe"/></g><g transform="translate(388.62,145.73) scale(2.429) rotate(0)"><path fill-rule="evenodd" clip-rule="evenodd" d="M10 20C15.5228 20 20 15.5228 20 10C20 4.47715 15.5228 0 10 0C4.47715 0 0 4.47715 0 10C0 15.5228 4.47715 20 10 20ZM10 17C13.866 17 17 13.866 17 10C17 6.13401 13.866 3 10 3C6.13401 3 3 6.13401 3 10C3 13.866 6.13401 17 10 17Z" fill="#e8f5fe"/></g><g transform="translate(437.2,145.73) scale(2.429) rotate(0)"><path fill-rule="evenodd" clip-rule="evenodd" d="M10 20C15.5228 20 20 15.5228 20 10C20 4.47715 15.5228 0 10 0C4.47715 0 0 4.47715 0 10C0 15.5228 4.47715 20 10 20ZM10 17C13.866 17 17 13.866 17 10C17 6.13401 13.866 3 10 3C6.13401 3 3 6.13401 3 10C3 13.866 6.13401 17 10 17Z" fill="#f2f5ff"/></g><rect x="485.7777777777778" y="145.73333333333335" width="48.57777777777778" height="48.57777777777778" fill="#ffffff"/><circle cx="522.215" cy="157.875" r="12.145" fill="#ffffff"/><path d="M 510.07 170.02 A 24.29 24.29 0 0 1  534.36 194.31 L 510.07 170.02 A 24.29 24.29 0 0 0 534.36 194.31" fill="#e5ebff"/><rect x="582.9333333333334" y="145.73333333333335" width="48.57777777777778" height="48.57777777777778" fill="#ffffff"/><circle cx="619.365" cy="157.875" r="12.145" fill="#e3f3fe"/><rect x="680.088888888889" y="145.73333333333335" width="48.57777777777778" height="48.57777777777778" fill="#ffffff"/><circle cx="692.235" cy="157.875" r="12.145" fill="#fcfdff"/><g transform="translate(704.38,145.73) scale(1.2145) rotate(0)"><path fill-rule="evenodd" clip-rule="evenodd" d="M10 20C15.5228 20 20 15.5228 20 10C20 4.47715 15.5228 0 10 0C4.47715 0 0 4.47715 0 10C0 15.5228 4.47715 20 10 20ZM10 17C13.866 17 17 13.866 17 10C17 6.13401 13.866 3 10 3C6.13401 3 3 6.13401 3 10C3 13.866 6.13401 17 10 17Z" fill="#dfecfe"/></g><g transform="translate(680.09,170.02) scale(1.2145) rotate(0)"><path fill-rule="evenodd" clip-rule="evenodd" d="M10 20C15.5228 20 20 15.5228 20 10C20 4.47715 15.5228 0 10 0C4.47715 0 0 4.47715 0 10C0 15.5228 4.47715 20 10 20ZM10 17C13.866 17 17 13.866 17 10C17 6.13401 13.866 3 10 3C6.13401 3 3 6.13401 3 10C3 13.866 6.13401 17 10 17Z" fill="#e5f4fe"/></g><circle cx="72.87" cy="218.6" r="24.29" fill="#f1f4ff"/><rect x="97.15555555555557" y="194.31111111111113" width="48.57777777777778" height="48.57777777777778" fill="#ffffff"/><g transform="translate(97.16,194.31) scale(1.2145) rotate(0)"><path fill-rule="evenodd" clip-rule="evenodd" d="M10 20C15.5228 20 20 15.5228 20 10C20 4.47715 15.5228 0 10 0C4.47715 0 0 4.47715 0 10C0 15.5228 4.47715 20 10 20ZM10 17C13.866 17 17 13.866 17 10C17 6.13401 13.866 3 10 3C6.13401 3 3 6.13401 3 10C3 13.866 6.13401 17 10 17Z" fill="#ffffff"/></g><g transform="translate(121.44,194.31) scale(1.2145) rotate(0)"><path fill-rule="evenodd" clip-rule="evenodd" d="M10 20C15.5228 20 20 15.5228 20 10C20 4.47715 15.5228 0 10 0C4.47715 0 0 4.47715 0 10C0 15.5228 4.47715 20 10 20ZM10 17C13.866 17 17 13.866 17 10C17 6.13401 13.866 3 10 3C6.13401 3 3 6.13401 3 10C3 13.866 6.13401 17 10 17Z" fill="#f5f9ff"/></g><g transform="translate(97.16,218.6) scale(1.2145) rotate(0)"><path fill-rule="evenodd" clip-rule="evenodd" d="M10 20C15.5228 20 20 15.5228 20 10C20 4.47715 15.5228 0 10 0C4.47715 0 0 4.47715 0 10C0 15.5228 4.47715 20 10 20ZM10 17C13.866 17 17 13.866 17 10C17 6.13401 13.866 3 10 3C6.13401 3 3 6.13401 3 10C3 13.866 6.13401 17 10 17Z" fill="#eff6ff"/></g><circle cx="133.585" cy="230.745" r="12.145" fill="#f9fbff"/><rect x="194.31111111111113" y="194.31111111111113" width="48.57777777777778" height="48.57777777777778" fill="#ffffff"/><circle cx="206.455" cy="206.455" r="12.145" fill="#ffffff"/><path d="M 194.31 242.89 A 24.29 24.29 0 0 1  218.6 218.6 L 194.31 242.89 A 24.29 24.29 0 0 0 218.6 218.6" fill="#fefeff"/><circle cx="230.745" cy="230.745" r="12.145" fill="#fcfeff"/><path d="M 291.47 194.31 A 48.58 48.58 0 0 1  340.05 242.89 L 291.47 194.31 A 48.58 48.58 0 0 0 340.05 242.89" fill="#e0edfe"/><g transform="translate(340.04,194.31) scale(2.429) rotate(0)"><path fill-rule="evenodd" clip-rule="evenodd" d="M10 20C15.5228 20 20 15.5228 20 10C20 4.47715 15.5228 0 10 0C4.47715 0 0 4.47715 0 10C0 15.5228 4.47715 20 10 20ZM10 17C13.866 17 17 13.866 17 10C17 6.13401 13.866 3 10 3C6.13401 3 3 6.13401 3 10C3 13.866 6.13401 17 10 17Z" fill="#cad4fe"/></g><rect x="388.62222222222226" y="194.31111111111113" width="48.57777777777778" height="48.57777777777778" fill="#ffffff"/><g transform="translate(388.62,194.31) scale(1.2145) rotate(0)"><path fill-rule="evenodd" clip-rule="evenodd" d="M10 20C15.5228 20 20 15.5228 20 10C20 4.47715 15.5228 0 10 0C4.47715 0 0 4.47715 0 10C0 15.5228 4.47715 20 10 20ZM10 17C13.866 17 17 13.866 17 10C17 6.13401 13.866 3 10 3C6.13401 3 3 6.13401 3 10C3 13.866 6.13401 17 10 17Z" fill="#f6fbff"/></g><circle cx="425.055" cy="206.455" r="12.145" fill="#f7f8ff"/><path d="M 412.91 218.6 A 24.29 24.29 0 0 1  437.20000000000005 242.89 L 412.91 218.6 A 24.29 24.29 0 0 0 437.20000000000005 242.89" fill="#f2f5ff"/><rect x="485.7777777777778" y="194.31111111111113" width="48.57777777777778" height="48.57777777777778" fill="#ffffff"/><g transform="translate(534.36,194.31) scale(2.429) rotate(0)"><path fill-rule="evenodd" clip-rule="evenodd" d="M10 20C15.5228 20 20 15.5228 20 10C20 4.47715 15.5228 0 10 0C4.47715 0 0 4.47715 0 10C0 15.5228 4.47715 20 10 20ZM10 17C13.866 17 17 13.866 17 10C17 6.13401 13.866 3 10 3C6.13401 3 3 6.13401 3 10C3 13.866 6.13401 17 10 17Z" fill="#d7dffe"/></g><path d="M 582.93 242.89 A 48.58 48.58 0 0 1  631.51 194.31 L 582.93 242.89 A 48.58 48.58 0 0 0 631.51 194.31" fill="#dae2fe"/><rect x="728.6666666666667" y="194.31111111111113" width="48.57777777777778" height="48.57777777777778" fill="#ffffff"/><circle cx="24.29" cy="267.18" r="24.29" fill="#d4dcfe"/><g transform="translate(48.58,242.89) scale(2.429) rotate(0)"><path fill-rule="evenodd" clip-rule="evenodd" d="M10 20C15.5228 20 20 15.5228 20 10C20 4.47715 15.5228 0 10 0C4.47715 0 0 4.47715 0 10C0 15.5228 4.47715 20 10 20ZM10 17C13.866 17 17 13.866 17 10C17 6.13401 13.866 3 10 3C6.13401 3 3 6.13401 3 10C3 13.866 6.13401 17 10 17Z" fill="#f1f9ff"/></g><circle cx="121.44999999999999" cy="267.18" r="24.29" fill="#f0f6ff"/><rect x="145.73333333333335" y="242.8888888888889" width="48.57777777777778" height="48.57777777777778" fill="#ffffff"/><circle cx="157.875" cy="255.035" r="12.145" fill="#f9fbff"/><g transform="translate(170.02,242.89) scale(1.2145) rotate(0)"><path fill-rule="evenodd" clip-rule="evenodd" d="M10 20C15.5228 20 20 15.5228 20 10C20 4.47715 15.5228 0 10 0C4.47715 0 0 4.47715 0 10C0 15.5228 4.47715 20 10 20ZM10 17C13.866 17 17 13.866 17 10C17 6.13401 13.866 3 10 3C6.13401 3 3 6.13401 3 10C3 13.866 6.13401 17 10 17Z" fill="#e9f6fe"/></g><path d="M 170.02 291.47 A 24.29 24.29 0 0 1  194.31 267.18 L 170.02 291.47 A 24.29 24.29 0 0 0 194.31 267.18" fill="#ffffff"/><path d="M 242.89 242.89 A 48.58 48.58 0 0 1  291.46999999999997 291.46999999999997 L 242.89 242.89 A 48.58 48.58 0 0 0 291.46999999999997 291.46999999999997" fill="#f5f7ff"/><g transform="translate(291.47,242.89) scale(2.429) rotate(0)"><path fill-rule="evenodd" clip-rule="evenodd" d="M10 20C15.5228 20 20 15.5228 20 10C20 4.47715 15.5228 0 10 0C4.47715 0 0 4.47715 0 10C0 15.5228 4.47715 20 10 20ZM10 17C13.866 17 17 13.866 17 10C17 6.13401 13.866 3 10 3C6.13401 3 3 6.13401 3 10C3 13.866 6.13401 17 10 17Z" fill="#ffffff"/></g><g transform="translate(437.2,242.89) scale(2.429) rotate(0)"><path fill-rule="evenodd" clip-rule="evenodd" d="M10 20C15.5228 20 20 15.5228 20 10C20 4.47715 15.5228 0 10 0C4.47715 0 0 4.47715 0 10C0 15.5228 4.47715 20 10 20ZM10 17C13.866 17 17 13.866 17 10C17 6.13401 13.866 3 10 3C6.13401 3 3 6.13401 3 10C3 13.866 6.13401 17 10 17Z" fill="#d5ddfe"/></g><rect x="485.7777777777778" y="242.8888888888889" width="48.57777777777778" height="48.57777777777778" fill="#ffffff"/><path d="M 485.78 267.18 A 24.29 24.29 0 0 1  510.07 242.89 L 485.78 267.18 A 24.29 24.29 0 0 0 510.07 242.89" fill="#ebefff"/><circle cx="522.215" cy="255.035" r="12.145" fill="#fcfdff"/><circle cx="497.92499999999995" cy="279.325" r="12.145" fill="#ffffff"/><g transform="translate(728.67,242.89) scale(2.429) rotate(0)"><path fill-rule="evenodd" clip-rule="evenodd" d="M10 20C15.5228 20 20 15.5228 20 10C20 4.47715 15.5228 0 10 0C4.47715 0 0 4.47715 0 10C0 15.5228 4.47715 20 10 20ZM10 17C13.866 17 17 13.866 17 10C17 6.13401 13.866 3 10 3C6.13401 3 3 6.13401 3 10C3 13.866 6.13401 17 10 17Z" fill="#ffffff"/></g><g transform="translate(48.58,291.47) scale(2.429) rotate(0)"><path fill-rule="evenodd" clip-rule="evenodd" d="M10 20C15.5228 20 20 15.5228 20 10C20 4.47715 15.5228 0 10 0C4.47715 0 0 4.47715 0 10C0 15.5228 4.47715 20 10 20ZM10 17C13.866 17 17 13.866 17 10C17 6.13401 13.866 3 10 3C6.13401 3 3 6.13401 3 10C3 13.866 6.13401 17 10 17Z" fill="#ffffff"/></g><g transform="translate(97.16,291.47) scale(2.429) rotate(0)"><path fill-rule="evenodd" clip-rule="evenodd" d="M10 20C15.5228 20 20 15.5228 20 10C20 4.47715 15.5228 0 10 0C4.47715 0 0 4.47715 0 10C0 15.5228 4.47715 20 10 20ZM10 17C13.866 17 17 13.866 17 10C17 6.13401 13.866 3 10 3C6.13401 3 3 6.13401 3 10C3 13.866 6.13401 17 10 17Z" fill="#ffffff"/></g><g transform="translate(145.73,291.47) scale(2.429) rotate(0)"><path fill-rule="evenodd" clip-rule="evenodd" d="M10 20C15.5228 20 20 15.5228 20 10C20 4.47715 15.5228 0 10 0C4.47715 0 0 4.47715 0 10C0 15.5228 4.47715 20 10 20ZM10 17C13.866 17 17 13.866 17 10C17 6.13401 13.866 3 10 3C6.13401 3 3 6.13401 3 10C3 13.866 6.13401 17 10 17Z" fill="#f1f7ff"/></g><circle cx="218.6" cy="315.76000000000005" r="24.29" fill="#ffffff"/><circle cx="267.18" cy="315.76000000000005" r="24.29" fill="#cad5fe"/><circle cx="315.76000000000005" cy="315.76000000000005" r="24.29" fill="#d4dcfe"/><path d="M 340.04 291.47 A 48.58 48.58 0 0 1  388.62 340.05 L 340.04 291.47 A 48.58 48.58 0 0 0 388.62 340.05" fill="#eaeeff"/><circle cx="412.91" cy="315.76000000000005" r="24.29" fill="#e0f2fe"/><circle cx="558.65" cy="315.76000000000005" r="24.29" fill="#ffffff"/><g transform="translate(631.51,291.47) scale(2.429) rotate(0)"><path fill-rule="evenodd" clip-rule="evenodd" d="M10 20C15.5228 20 20 15.5228 20 10C20 4.47715 15.5228 0 10 0C4.47715 0 0 4.47715 0 10C0 15.5228 4.47715 20 10 20ZM10 17C13.866 17 17 13.866 17 10C17 6.13401 13.866 3 10 3C6.13401 3 3 6.13401 3 10C3 13.866 6.13401 17 10 17Z" fill="#dfecfe"/></g><rect x="0" y="340.0444444444445" width="48.57777777777778" height="48.57777777777778" fill="#ffffff"/><g transform="translate(0,340.04) scale(1.2145) rotate(0)"><path fill-rule="evenodd" clip-rule="evenodd" d="M10 20C15.5228 20 20 15.5228 20 10C20 4.47715 15.5228 0 10 0C4.47715 0 0 4.47715 0 10C0 15.5228 4.47715 20 10 20ZM10 17C13.866 17 17 13.866 17 10C17 6.13401 13.866 3 10 3C6.13401 3 3 6.13401 3 10C3 13.866 6.13401 17 10 17Z" fill="#e7edff"/></g><path d="M 24.29 340.04 A 24.29 24.29 0 0 1  48.58 364.33000000000004 L 24.29 340.04 A 24.29 24.29 0 0 0 48.58 364.33000000000004" fill="#e5eaff"/><circle cx="12.145" cy="376.47499999999997" r="12.145" fill="#f2f5ff"/><path d="M 24.29 388.62 A 24.29 24.29 0 0 1  48.58 364.33 L 24.29 388.62 A 24.29 24.29 0 0 0 48.58 364.33" fill="#f2f5ff"/><circle cx="72.87" cy="364.33000000000004" r="24.29" fill="#ffffff"/><circle cx="121.44999999999999" cy="364.33000000000004" r="24.29" fill="#ffffff"/><g transform="translate(145.73,340.04) scale(2.429) rotate(0)"><path fill-rule="evenodd" clip-rule="evenodd" d="M10 20C15.5228 20 20 15.5228 20 10C20 4.47715 15.5228 0 10 0C4.47715 0 0 4.47715 0 10C0 15.5228 4.47715 20 10 20ZM10 17C13.866 17 17 13.866 17 10C17 6.13401 13.866 3 10 3C6.13401 3 3 6.13401 3 10C3 13.866 6.13401 17 10 17Z" fill="#ffffff"/></g><g transform="translate(194.31,340.04) scale(2.429) rotate(0)"><path fill-rule="evenodd" clip-rule="evenodd" d="M10 20C15.5228 20 20 15.5228 20 10C20 4.47715 15.5228 0 10 0C4.47715 0 0 4.47715 0 10C0 15.5228 4.47715 20 10 20ZM10 17C13.866 17 17 13.866 17 10C17 6.13401 13.866 3 10 3C6.13401 3 3 6.13401 3 10C3 13.866 6.13401 17 10 17Z" fill="#ffffff"/></g><g transform="translate(242.89,340.04) scale(2.429) rotate(0)"><path fill-rule="evenodd" clip-rule="evenodd" d="M10 20C15.5228 20 20 15.5228 20 10C20 4.47715 15.5228 0 10 0C4.47715 0 0 4.47715 0 10C0 15.5228 4.47715 20 10 20ZM10 17C13.866 17 17 13.866 17 10C17 6.13401 13.866 3 10 3C6.13401 3 3 6.13401 3 10C3 13.866 6.13401 17 10 17Z" fill="#e9f6fe"/></g><rect x="291.4666666666667" y="340.0444444444445" width="48.57777777777778" height="48.57777777777778" fill="#ffffff"/><path d="M 291.47 364.33000000000004 A 24.29 24.29 0 0 1  315.76000000000005 340.04 L 291.47 364.33000000000004 A 24.29 24.29 0 0 0 315.76000000000005 340.04" fill="#ffffff"/><g transform="translate(315.76,340.04) scale(1.2145) rotate(0)"><path fill-rule="evenodd" clip-rule="evenodd" d="M10 20C15.5228 20 20 15.5228 20 10C20 4.47715 15.5228 0 10 0C4.47715 0 0 4.47715 0 10C0 15.5228 4.47715 20 10 20ZM10 17C13.866 17 17 13.866 17 10C17 6.13401 13.866 3 10 3C6.13401 3 3 6.13401 3 10C3 13.866 6.13401 17 10 17Z" fill="#e7edff"/></g><circle cx="303.615" cy="376.47499999999997" r="12.145" fill="#dbeafe"/><circle cx="327.905" cy="376.47499999999997" r="12.145" fill="#fcfeff"/><circle cx="364.33000000000004" cy="364.33000000000004" r="24.29" fill="#f5f9ff"/><circle cx="412.91" cy="364.33000000000004" r="24.29" fill="#f6fbff"/><rect x="437.20000000000005" y="340.0444444444445" width="48.57777777777778" height="48.57777777777778" fill="#ffffff"/><path d="M 437.2 340.04 A 24.29 24.29 0 0 1  461.49 364.33000000000004 L 437.2 340.04 A 24.29 24.29 0 0 0 461.49 364.33000000000004" fill="#e0e7ff"/><path d="M 461.49 364.33000000000004 A 24.29 24.29 0 0 1  485.78000000000003 340.04 L 461.49 364.33000000000004 A 24.29 24.29 0 0 0 485.78000000000003 340.04" fill="#e6ecff"/><circle cx="449.34499999999997" cy="376.47499999999997" r="12.145" fill="#f1f4ff"/><g transform="translate(461.49,364.33) scale(1.2145) rotate(0)"><path fill-rule="evenodd" clip-rule="evenodd" d="M10 20C15.5228 20 20 15.5228 20 10C20 4.47715 15.5228 0 10 0C4.47715 0 0 4.47715 0 10C0 15.5228 4.47715 20 10 20ZM10 17C13.866 17 17 13.866 17 10C17 6.13401 13.866 3 10 3C6.13401 3 3 6.13401 3 10C3 13.866 6.13401 17 10 17Z" fill="#ffffff"/></g><g transform="translate(485.78,340.04) scale(2.429) rotate(0)"><path fill-rule="evenodd" clip-rule="evenodd" d="M10 20C15.5228 20 20 15.5228 20 10C20 4.47715 15.5228 0 10 0C4.47715 0 0 4.47715 0 10C0 15.5228 4.47715 20 10 20ZM10 17C13.866 17 17 13.866 17 10C17 6.13401 13.866 3 10 3C6.13401 3 3 6.13401 3 10C3 13.866 6.13401 17 10 17Z" fill="#f6f8ff"/></g><path d="M 534.36 388.62 A 48.58 48.58 0 0 1  582.94 340.04 L 534.36 388.62 A 48.58 48.58 0 0 0 582.94 340.04" fill="#fbfdff"/><rect x="582.9333333333334" y="340.0444444444445" width="48.57777777777778" height="48.57777777777778" fill="#ffffff"/><g transform="translate(582.93,340.04) scale(1.2145) rotate(0)"><path fill-rule="evenodd" clip-rule="evenodd" d="M10 20C15.5228 20 20 15.5228 20 10C20 4.47715 15.5228 0 10 0C4.47715 0 0 4.47715 0 10C0 15.5228 4.47715 20 10 20ZM10 17C13.866 17 17 13.866 17 10C17 6.13401 13.866 3 10 3C6.13401 3 3 6.13401 3 10C3 13.866 6.13401 17 10 17Z" fill="#edf1ff"/></g><path d="M 607.22 340.04 A 24.29 24.29 0 0 1  631.51 364.33000000000004 L 607.22 340.04 A 24.29 24.29 0 0 0 631.51 364.33000000000004" fill="#e0e7ff"/><g transform="translate(582.93,364.33) scale(1.2145) rotate(0)"><path fill-rule="evenodd" clip-rule="evenodd" d="M10 20C15.5228 20 20 15.5228 20 10C20 4.47715 15.5228 0 10 0C4.47715 0 0 4.47715 0 10C0 15.5228 4.47715 20 10 20ZM10 17C13.866 17 17 13.866 17 10C17 6.13401 13.866 3 10 3C6.13401 3 3 6.13401 3 10C3 13.866 6.13401 17 10 17Z" fill="#e8f1fe"/></g><g transform="translate(607.22,364.33) scale(1.2145) rotate(0)"><path fill-rule="evenodd" clip-rule="evenodd" d="M10 20C15.5228 20 20 15.5228 20 10C20 4.47715 15.5228 0 10 0C4.47715 0 0 4.47715 0 10C0 15.5228 4.47715 20 10 20ZM10 17C13.866 17 17 13.866 17 10C17 6.13401 13.866 3 10 3C6.13401 3 3 6.13401 3 10C3 13.866 6.13401 17 10 17Z" fill="#ffffff"/></g><g transform="translate(631.51,340.04) scale(2.429) rotate(0)"><path fill-rule="evenodd" clip-rule="evenodd" d="M10 20C15.5228 20 20 15.5228 20 10C20 4.47715 15.5228 0 10 0C4.47715 0 0 4.47715 0 10C0 15.5228 4.47715 20 10 20ZM10 17C13.866 17 17 13.866 17 10C17 6.13401 13.866 3 10 3C6.13401 3 3 6.13401 3 10C3 13.866 6.13401 17 10 17Z" fill="#ddebfe"/></g><circle cx="704.38" cy="364.33000000000004" r="24.29" fill="#fdfeff"/><rect x="728.6666666666667" y="340.0444444444445" width="48.57777777777778" height="48.57777777777778" fill="#ffffff"/><g transform="translate(752.96,340.04) scale(1.2145) rotate(0)"><path fill-rule="evenodd" clip-rule="evenodd" d="M10 20C15.5228 20 20 15.5228 20 10C20 4.47715 15.5228 0 10 0C4.47715 0 0 4.47715 0 10C0 15.5228 4.47715 20 10 20ZM10 17C13.866 17 17 13.866 17 10C17 6.13401 13.866 3 10 3C6.13401 3 3 6.13401 3 10C3 13.866 6.13401 17 10 17Z" fill="#f2f7ff"/></g><circle cx="740.8149999999999" cy="376.47499999999997" r="12.145" fill="#fbfdff"/><g transform="translate(752.96,364.33) scale(1.2145) rotate(0)"><path fill-rule="evenodd" clip-rule="evenodd" d="M10 20C15.5228 20 20 15.5228 20 10C20 4.47715 15.5228 0 10 0C4.47715 0 0 4.47715 0 10C0 15.5228 4.47715 20 10 20ZM10 17C13.866 17 17 13.866 17 10C17 6.13401 13.866 3 10 3C6.13401 3 3 6.13401 3 10C3 13.866 6.13401 17 10 17Z" fill="#eff8fe"/></g><rect x="0" y="388.62222222222226" width="48.57777777777778" height="48.57777777777778" fill="#ffffff"/><g transform="translate(0,388.62) scale(1.2145) rotate(0)"><path fill-rule="evenodd" clip-rule="evenodd" d="M10 20C15.5228 20 20 15.5228 20 10C20 4.47715 15.5228 0 10 0C4.47715 0 0 4.47715 0 10C0 15.5228 4.47715 20 10 20ZM10 17C13.866 17 17 13.866 17 10C17 6.13401 13.866 3 10 3C6.13401 3 3 6.13401 3 10C3 13.866 6.13401 17 10 17Z" fill="#eff8fe"/></g><circle cx="36.435" cy="400.765" r="12.145" fill="#d2dbfe"/><g transform="translate(0,412.91) scale(1.2145) rotate(0)"><path fill-rule="evenodd" clip-rule="evenodd" d="M10 20C15.5228 20 20 15.5228 20 10C20 4.47715 15.5228 0 10 0C4.47715 0 0 4.47715 0 10C0 15.5228 4.47715 20 10 20ZM10 17C13.866 17 17 13.866 17 10C17 6.13401 13.866 3 10 3C6.13401 3 3 6.13401 3 10C3 13.866 6.13401 17 10 17Z" fill="#d1dafe"/></g><circle cx="36.435" cy="425.055" r="12.145" fill="#e9f2fe"/><circle cx="72.87" cy="412.91" r="24.29" fill="#ffffff"/><rect x="97.15555555555557" y="388.62222222222226" width="48.57777777777778" height="48.57777777777778" fill="#ffffff"/><circle cx="109.30499999999999" cy="400.765" r="12.145" fill="#eff3ff"/><g transform="translate(121.44,388.62) scale(1.2145) rotate(0)"><path fill-rule="evenodd" clip-rule="evenodd" d="M10 20C15.5228 20 20 15.5228 20 10C20 4.47715 15.5228 0 10 0C4.47715 0 0 4.47715 0 10C0 15.5228 4.47715 20 10 20ZM10 17C13.866 17 17 13.866 17 10C17 6.13401 13.866 3 10 3C6.13401 3 3 6.13401 3 10C3 13.866 6.13401 17 10 17Z" fill="#fcfeff"/></g><g transform="translate(97.16,412.91) scale(1.2145) rotate(0)"><path fill-rule="evenodd" clip-rule="evenodd" d="M10 20C15.5228 20 20 15.5228 20 10C20 4.47715 15.5228 0 10 0C4.47715 0 0 4.47715 0 10C0 15.5228 4.47715 20 10 20ZM10 17C13.866 17 17 13.866 17 10C17 6.13401 13.866 3 10 3C6.13401 3 3 6.13401 3 10C3 13.866 6.13401 17 10 17Z" fill="#f6f8ff"/></g><path d="M 121.44 412.91 A 24.29 24.29 0 0 1  145.73 437.20000000000005 L 121.44 412.91 A 24.29 24.29 0 0 0 145.73 437.20000000000005" fill="#f4faff"/><circle cx="170.01999999999998" cy="412.91" r="24.29" fill="#e9edff"/><path d="M 194.31 437.2 A 48.58 48.58 0 0 1  242.89 388.62 L 194.31 437.2 A 48.58 48.58 0 0 0 242.89 388.62" fill="#eff2ff"/><g transform="translate(242.89,388.62) scale(2.429) rotate(0)"><path fill-rule="evenodd" clip-rule="evenodd" d="M10 20C15.5228 20 20 15.5228 20 10C20 4.47715 15.5228 0 10 0C4.47715 0 0 4.47715 0 10C0 15.5228 4.47715 20 10 20ZM10 17C13.866 17 17 13.866 17 10C17 6.13401 13.866 3 10 3C6.13401 3 3 6.13401 3 10C3 13.866 6.13401 17 10 17Z" fill="#f8faff"/></g><rect x="291.4666666666667" y="388.62222222222226" width="48.57777777777778" height="48.57777777777778" fill="#ffffff"/><g transform="translate(291.47,388.62) scale(1.2145) rotate(0)"><path fill-rule="evenodd" clip-rule="evenodd" d="M10 20C15.5228 20 20 15.5228 20 10C20 4.47715 15.5228 0 10 0C4.47715 0 0 4.47715 0 10C0 15.5228 4.47715 20 10 20ZM10 17C13.866 17 17 13.866 17 10C17 6.13401 13.866 3 10 3C6.13401 3 3 6.13401 3 10C3 13.866 6.13401 17 10 17Z" fill="#ffffff"/></g><g transform="translate(315.76,388.62) scale(1.2145) rotate(0)"><path fill-rule="evenodd" clip-rule="evenodd" d="M10 20C15.5228 20 20 15.5228 20 10C20 4.47715 15.5228 0 10 0C4.47715 0 0 4.47715 0 10C0 15.5228 4.47715 20 10 20ZM10 17C13.866 17 17 13.866 17 10C17 6.13401 13.866 3 10 3C6.13401 3 3 6.13401 3 10C3 13.866 6.13401 17 10 17Z" fill="#ecf7fe"/></g><path d="M 291.47 412.91 A 24.29 24.29 0 0 1  315.76000000000005 437.20000000000005 L 291.47 412.91 A 24.29 24.29 0 0 0 315.76000000000005 437.20000000000005" fill="#e3f3fe"/><circle cx="327.905" cy="425.055" r="12.145" fill="#e3eaff"/><rect x="340.0444444444445" y="388.62222222222226" width="48.57777777777778" height="48.57777777777778" fill="#ffffff"/><path d="M 340.04 412.91 A 24.29 24.29 0 0 1  364.33000000000004 388.62 L 340.04 412.91 A 24.29 24.29 0 0 0 364.33000000000004 388.62" fill="#ffffff"/><circle cx="376.47499999999997" cy="400.765" r="12.145" fill="#ffffff"/><circle cx="352.185" cy="425.055" r="12.145" fill="#f8fcff"/><circle cx="376.47499999999997" cy="425.055" r="12.145" fill="#f3f5ff"/><circle cx="412.91" cy="412.91" r="24.29" fill="#e4e9ff"/><rect x="437.20000000000005" y="388.62222222222226" width="48.57777777777778" height="48.57777777777778" fill="#ffffff"/><circle cx="449.34499999999997" cy="400.765" r="12.145" fill="#fafcff"/><circle cx="473.635" cy="400.765" r="12.145" fill="#f6f8ff"/><path d="M 437.2 412.91 A 24.29 24.29 0 0 1  461.49 437.20000000000005 L 437.2 412.91 A 24.29 24.29 0 0 0 461.49 437.20000000000005" fill="#fcfdff"/><g transform="translate(461.49,412.91) scale(1.2145) rotate(0)"><path fill-rule="evenodd" clip-rule="evenodd" d="M10 20C15.5228 20 20 15.5228 20 10C20 4.47715 15.5228 0 10 0C4.47715 0 0 4.47715 0 10C0 15.5228 4.47715 20 10 20ZM10 17C13.866 17 17 13.866 17 10C17 6.13401 13.866 3 10 3C6.13401 3 3 6.13401 3 10C3 13.866 6.13401 17 10 17Z" fill="#ffffff"/></g><path d="M 485.78 437.2 A 48.58 48.58 0 0 1  534.36 388.62 L 485.78 437.2 A 48.58 48.58 0 0 0 534.36 388.62" fill="#d1dafe"/><circle cx="558.65" cy="412.91" r="24.29" fill="#f8faff"/><g transform="translate(582.93,388.62) scale(2.429) rotate(0)"><path fill-rule="evenodd" clip-rule="evenodd" d="M10 20C15.5228 20 20 15.5228 20 10C20 4.47715 15.5228 0 10 0C4.47715 0 0 4.47715 0 10C0 15.5228 4.47715 20 10 20ZM10 17C13.866 17 17 13.866 17 10C17 6.13401 13.866 3 10 3C6.13401 3 3 6.13401 3 10C3 13.866 6.13401 17 10 17Z" fill="#ced7fe"/></g><path d="M 631.51 437.2 A 48.58 48.58 0 0 1  680.09 388.62 L 631.51 437.2 A 48.58 48.58 0 0 0 680.09 388.62" fill="#f7f8ff"/><rect x="680.088888888889" y="388.62222222222226" width="48.57777777777778" height="48.57777777777778" fill="#ffffff"/><path d="M 680.09 412.91 A 24.29 24.29 0 0 1  704.38 388.62 L 680.09 412.91 A 24.29 24.29 0 0 0 704.38 388.62" fill="#ffffff"/><g transform="translate(704.38,388.62) scale(1.2145) rotate(0)"><path fill-rule="evenodd" clip-rule="evenodd" d="M10 20C15.5228 20 20 15.5228 20 10C20 4.47715 15.5228 0 10 0C4.47715 0 0 4.47715 0 10C0 15.5228 4.47715 20 10 20ZM10 17C13.866 17 17 13.866 17 10C17 6.13401 13.866 3 10 3C6.13401 3 3 6.13401 3 10C3 13.866 6.13401 17 10 17Z" fill="#fbfdff"/></g><path d="M 680.09 437.20000000000005 A 24.29 24.29 0 0 1  704.38 412.91 L 680.09 437.20000000000005 A 24.29 24.29 0 0 0 704.38 412.91" fill="#fcfdff"/><circle cx="716.525" cy="425.055" r="12.145" fill="#e0e6fe"/><rect x="728.6666666666667" y="388.62222222222226" width="48.57777777777778" height="48.57777777777778" fill="#ffffff"/><circle cx="740.8149999999999" cy="400.765" r="12.145" fill="#fcfcff"/><g transform="translate(752.96,388.62) scale(1.2145) rotate(0)"><path fill-rule="evenodd" clip-rule="evenodd" d="M10 20C15.5228 20 20 15.5228 20 10C20 4.47715 15.5228 0 10 0C4.47715 0 0 4.47715 0 10C0 15.5228 4.47715 20 10 20ZM10 17C13.866 17 17 13.866 17 10C17 6.13401 13.866 3 10 3C6.13401 3 3 6.13401 3 10C3 13.866 6.13401 17 10 17Z" fill="#cbd5fe"/></g><circle cx="740.8149999999999" cy="425.055" r="12.145" fill="#e4eaff"/><circle cx="765.105" cy="425.055" r="12.145" fill="#e8edff"/></g></svg>